<svg width="135" height="32" viewBox="0 0 135 32" fill="none" xmlns="http://www.w3.org/2000/svg">
<path d="M7.46245 30.7352C7.33597 30.7352 7.20949 30.693 7.083 30.6508C2.86693 29.1331 0 25.0856 0 20.5744C0 11.0883 9.48617 0.758893 9.90777 0.337286C10.1186 0.126482 10.4137 0 10.7088 0C11.004 0 11.2991 0.126482 11.5099 0.337286C11.805 0.674572 19.0145 8.51647 20.9539 16.78V16.8221L20.996 17.0751C21.1225 17.6653 20.7009 18.2556 20.1107 18.3821C19.5204 18.5086 18.9302 18.087 18.8037 17.4967L18.7615 17.2859C17.581 12.058 13.9552 6.8722 11.7207 4.04743C11.2148 3.37286 10.2029 3.37286 9.65481 4.04743C8.81159 5.10145 7.79974 6.45059 6.78788 8.0527C3.83663 12.7325 2.23452 17.0751 2.23452 20.5744C2.23452 24.1581 4.46904 27.3202 7.8419 28.5428C8.38999 28.7536 8.72727 29.3439 8.55863 29.9341C8.38999 30.44 7.92622 30.7352 7.46245 30.7352Z" fill="#14D7E6"/>
<path d="M11.6792 31.241C11.1311 31.241 10.6251 30.8194 10.583 30.2292C10.5408 29.6389 10.9624 29.0908 11.5948 29.0065C15.5158 28.5849 18.6778 25.465 19.1416 21.5441C19.2259 20.9538 19.774 20.4901 20.3643 20.5744C20.9545 20.6587 21.4183 21.2068 21.334 21.797C21.081 24.2002 19.9427 26.4769 18.2141 28.2055C16.4855 29.9341 14.2088 30.9881 11.8056 31.241C11.7635 31.241 11.7213 31.241 11.6792 31.241Z" fill="#14D7E6"/>
<path opacity="0.65" d="M11.3405 27.6996C10.7924 27.6996 10.2864 27.278 10.2443 26.6877C10.16 26.0553 10.6237 25.5494 11.2561 25.4651C13.4907 25.2121 15.3036 23.4413 15.5144 21.1647C15.5565 20.5322 16.1046 20.1106 16.737 20.1528C17.3694 20.195 17.7911 20.7431 17.7489 21.3755C17.4116 24.664 14.7555 27.3201 11.4669 27.6574C11.3826 27.6996 11.3826 27.6996 11.3405 27.6996Z" fill="#14D7E6"/>
<path opacity="0.4" d="M10.9205 23.9895C10.3725 23.9895 9.86652 23.5679 9.82436 22.9776C9.74004 22.3452 10.2038 21.8393 10.8362 21.755C11.3421 21.7128 11.7638 21.2912 11.8059 20.7853C11.8481 20.1529 12.3962 19.7312 13.0286 19.7734C13.661 19.8156 14.0826 20.3637 14.0404 20.9961C13.8718 22.556 12.6491 23.8208 11.0892 23.9473C11.0049 23.9895 10.9627 23.9895 10.9205 23.9895Z" fill="#14D7E6"/>
<path d="M44.9848 7.42031C45.2377 7.16735 45.4064 6.87222 45.4064 6.49277C45.4064 6.11333 45.2799 5.8182 44.9848 5.56524C44.7318 5.31227 44.3945 5.18579 44.0151 5.18579H30.3972C30.0177 5.18579 29.7226 5.31227 29.4275 5.52308C29.1745 5.77604 29.0059 6.07117 29.0059 6.45061C29.0059 6.83006 29.1323 7.12518 29.4275 7.37815C29.6804 7.63111 30.0177 7.7576 30.3972 7.7576H35.8359V24.7062C35.8359 25.0857 35.9624 25.4229 36.2153 25.6759C36.4683 25.9289 36.8056 26.0975 37.2272 26.0975C37.6488 26.0975 37.9861 25.971 38.2391 25.7181C38.492 25.4651 38.6185 25.1278 38.6185 24.7484V7.7576H44.0572C44.4367 7.7576 44.7318 7.67327 44.9848 7.42031Z" fill="#E1FFFF"/>
<path d="M55.3567 12.1845C54.6821 11.5099 53.9232 11.004 53.08 10.6667C52.2368 10.3294 51.3092 10.1608 50.3817 10.1608C49.159 10.1608 47.9785 10.4981 46.8402 11.1305C45.744 11.7629 44.8165 12.7326 44.1419 13.9552C43.4673 15.1779 43.0879 16.6535 43.0879 18.3821C43.0879 19.9421 43.4252 21.3334 44.0997 22.5139C44.7743 23.6944 45.7019 24.6219 46.9245 25.3386C48.105 26.0132 49.5385 26.3505 51.0984 26.3505C52.1946 26.3505 53.2065 26.0975 54.1762 25.6759C55.1459 25.2121 55.9048 24.6641 56.4528 24.0738C56.8323 23.7787 57.0009 23.4414 57.0009 23.062C57.0009 22.7668 56.8745 22.4717 56.6636 22.2609C56.242 21.8393 55.6518 21.755 54.9772 22.2187C54.7243 22.4717 54.4291 22.7668 54.0497 23.0198C53.6702 23.2728 53.2486 23.4836 52.7849 23.6522C52.3211 23.8208 51.7308 23.9052 51.0141 23.9052C49.9601 23.9052 49.0326 23.6522 48.2315 23.1884C47.4304 22.7247 46.798 22.0501 46.3764 21.2069C45.997 20.5323 45.7862 19.7313 45.744 18.888H56.1999C56.5372 18.888 56.8745 18.7616 57.1274 18.5508C57.3804 18.2978 57.549 18.0027 57.549 17.6654C57.549 16.527 57.2961 15.5152 56.9166 14.6298C56.5793 13.6601 56.0312 12.8591 55.3567 12.1845ZM54.7664 16.4427V16.527H45.8705C45.9127 16.2319 45.997 15.9789 46.1235 15.726C46.3764 15.0093 46.7559 14.4612 47.1775 14.0396C47.5991 13.6179 48.105 13.2807 48.6953 13.0699C49.9601 12.6061 51.2249 12.6482 52.4054 13.1963C53.0378 13.4915 53.5859 13.9131 54.0075 14.5033C54.4291 15.0093 54.7243 15.6838 54.7664 16.4427Z" fill="#E1FFFF"/>
<path d="M63.1977 4.42686C62.9448 4.17389 62.6075 4.00525 62.2281 4.00525C61.8486 4.00525 61.5113 4.13173 61.2584 4.3847C61.0054 4.63766 60.8789 4.97495 60.8789 5.35439V24.664C60.8789 25.0435 61.0054 25.3807 61.2584 25.6337C61.5113 25.8867 61.8486 26.0553 62.2281 26.0553C62.6075 26.0553 62.9448 25.9288 63.1977 25.6759C63.4507 25.4229 63.5772 25.0856 63.5772 24.7062V5.39655C63.535 5.01711 63.4507 4.67982 63.1977 4.42686Z" fill="#E1FFFF"/>
<path d="M80.3156 10.4137C79.9362 10.4137 79.5989 10.5402 79.346 10.7932C79.093 11.0461 78.9665 11.3834 78.9665 11.7207V12.4374C78.7557 12.1845 78.5449 11.9315 78.2919 11.7207C77.7438 11.2569 77.0693 10.8775 76.3525 10.5824C75.5937 10.2872 74.7926 10.1608 73.9494 10.1608C72.6424 10.1608 71.4197 10.4981 70.3236 11.2148C69.2274 11.8894 68.3842 12.8591 67.7518 14.0817C67.1193 15.2622 66.8242 16.6957 66.8242 18.2556C66.8242 19.8156 67.1615 21.2069 67.7518 22.4295C68.3842 23.6522 69.2274 24.6219 70.3236 25.3386C71.4197 26.0554 72.6424 26.3927 74.0337 26.3927C74.8348 26.3927 75.5936 26.2662 76.3104 25.971C77.0271 25.6759 77.6595 25.2965 78.1655 24.8749C78.4606 24.6219 78.7557 24.3268 79.0087 24.0316V24.7905C79.0087 25.17 79.1352 25.4651 79.3881 25.7602C79.6411 26.0132 79.9784 26.1818 80.3578 26.1818C80.7373 26.1818 81.0745 26.0554 81.3275 25.7602C81.5805 25.5073 81.707 25.17 81.707 24.7905V11.7629C81.707 11.3834 81.5805 11.0883 81.3275 10.8353C81.0324 10.5402 80.6951 10.4137 80.3156 10.4137ZM79.093 18.2556C79.093 19.3096 78.8822 20.2793 78.4606 21.1226C78.039 21.9658 77.4909 22.6403 76.732 23.1463C76.0153 23.6522 75.172 23.863 74.2023 23.863C73.2748 23.863 72.4316 23.61 71.7149 23.1463C70.9981 22.6403 70.4079 21.9658 69.9863 21.1226C69.5647 20.2793 69.3539 19.3096 69.3539 18.2556C69.3539 17.2016 69.5647 16.2319 69.9863 15.3887C70.4079 14.5455 70.9981 13.8709 71.7149 13.4071C72.4316 12.9434 73.2748 12.6904 74.2023 12.6904C75.1299 12.6904 75.9731 12.9434 76.732 13.4071C77.4487 13.9131 78.039 14.5876 78.4606 15.3887C78.8822 16.2319 79.093 17.2016 79.093 18.2556Z" fill="#14D7E6"/>
<path d="M98.1926 10.4981C97.8132 10.4981 97.4759 10.6245 97.2229 10.8775C96.97 11.1305 96.8435 11.4677 96.8435 11.8472V12.4796C96.6327 12.2266 96.3797 11.9737 96.1267 11.7207C95.5786 11.2569 94.9041 10.8775 94.1873 10.5824C93.4284 10.2872 92.6696 10.1608 91.8263 10.1608C90.5194 10.1608 89.2967 10.4981 88.2005 11.2148C87.1043 11.8894 86.2611 12.8591 85.6287 14.0817C84.9963 15.3044 84.7012 16.6957 84.7012 18.2556C84.7012 19.8156 85.0385 21.2069 85.6287 22.4295C86.2611 23.6522 87.1043 24.6219 88.2005 25.2965C89.2967 26.0132 90.5194 26.3505 91.8685 26.3505C92.6696 26.3505 93.4285 26.224 94.1452 25.9289C94.8619 25.6338 95.4943 25.2543 96.0003 24.7905C96.2954 24.4954 96.5905 24.2003 96.8435 23.9052V30.6087C96.8435 30.9882 96.97 31.2833 97.2229 31.5784C97.4759 31.8314 97.8132 32 98.1926 32C98.5721 32 98.8672 31.8735 99.1623 31.5784C99.4153 31.3255 99.5418 30.9882 99.5418 30.6087V11.8472C99.5418 11.4677 99.4153 11.1305 99.1623 10.8775C98.9093 10.6245 98.5721 10.4981 98.1926 10.4981ZM96.97 18.2556C96.97 19.3096 96.7592 20.2793 96.3375 21.1226C95.9159 21.9658 95.3678 22.6403 94.6511 23.1041C93.9344 23.5679 93.0912 23.8208 92.1215 23.8208C91.1939 23.8208 90.3507 23.5679 89.634 23.1041C88.9173 22.5982 88.327 21.9236 87.9054 21.0804C87.4838 20.2372 87.273 19.2675 87.273 18.2135C87.273 17.1594 87.4838 16.1898 87.9054 15.3465C88.327 14.5033 88.9173 13.8288 89.634 13.365C90.3507 12.9012 91.1939 12.6482 92.1215 12.6482C93.049 12.6482 93.8922 12.9012 94.6511 13.365C95.3678 13.8288 95.9581 14.5033 96.3375 15.3465C96.7592 16.2319 96.97 17.2016 96.97 18.2556Z" fill="#14D7E6"/>
<path d="M115.057 10.5824C114.677 10.5824 114.34 10.7089 114.087 10.9618C113.834 11.2148 113.708 11.5521 113.708 11.9315V19.8999C113.708 21.1647 113.37 22.1766 112.738 22.809C112.105 23.4414 111.136 23.7787 109.955 23.7787C108.775 23.7787 107.847 23.4414 107.173 22.809C106.54 22.1766 106.203 21.1647 106.203 19.8999V11.9315C106.203 11.5521 106.077 11.2148 105.824 10.9618C105.571 10.7089 105.233 10.5824 104.854 10.5824C104.474 10.5824 104.179 10.7089 103.926 10.9618C103.673 11.2148 103.547 11.5521 103.547 11.9315V19.8999C103.547 21.9236 104.137 23.4836 105.233 24.6219C106.372 25.7181 107.932 26.3083 109.955 26.3083C111.979 26.3083 113.539 25.7603 114.677 24.6219C115.816 23.5257 116.364 21.9236 116.364 19.8999V11.9315C116.364 11.5521 116.237 11.2148 115.984 10.9618C115.773 10.7089 115.478 10.5824 115.057 10.5824Z" fill="#14D7E6"/>
<path d="M133.903 10.7932C133.65 10.5402 133.312 10.4137 132.933 10.4137C132.553 10.4137 132.216 10.5402 131.963 10.7932C131.71 11.0461 131.584 11.3834 131.584 11.7207V12.4374C131.373 12.1845 131.162 11.9315 130.909 11.7207C130.361 11.2569 129.686 10.8775 128.97 10.5824C128.211 10.2872 127.41 10.1608 126.567 10.1608C125.26 10.1608 124.037 10.4981 122.941 11.2148C121.845 11.8894 121.001 12.8591 120.369 14.0817C119.737 15.3044 119.441 16.6957 119.441 18.2556C119.441 19.8156 119.779 21.2069 120.369 22.4295C121.001 23.6522 121.845 24.6219 122.941 25.3386C124.037 26.0554 125.26 26.3927 126.651 26.3927C127.452 26.3927 128.211 26.2662 128.928 25.971C129.644 25.6759 130.277 25.2965 130.783 24.8749C131.078 24.6219 131.373 24.3268 131.626 24.0316V24.7905C131.626 25.17 131.752 25.4651 132.005 25.7602C132.258 26.0132 132.596 26.1818 132.975 26.1818C133.354 26.1818 133.692 26.0554 133.945 25.7602C134.198 25.5073 134.324 25.17 134.324 24.7905V11.7629C134.282 11.3834 134.156 11.0461 133.903 10.7932ZM131.752 18.2556C131.752 19.3096 131.542 20.2793 131.12 21.1226C130.698 21.9658 130.15 22.6403 129.434 23.1463C128.717 23.6522 127.874 23.863 126.904 23.863C125.976 23.863 125.133 23.61 124.416 23.1463C123.7 22.6403 123.109 21.9658 122.688 21.1226C122.266 20.2793 122.055 19.3096 122.055 18.2556C122.055 17.2016 122.266 16.2319 122.688 15.3887C123.109 14.5455 123.7 13.8709 124.416 13.4071C125.133 12.9434 125.976 12.6904 126.904 12.6904C127.831 12.6904 128.675 12.9434 129.434 13.4071C130.15 13.9131 130.74 14.5876 131.162 15.3887C131.542 16.2319 131.752 17.2016 131.752 18.2556Z" fill="#14D7E6"/>
</svg>
