<svg xmlns="http://www.w3.org/2000/svg" viewBox="0 0 11094.42 3242.4"><defs><style>      .cls-1 {        fill: #f2f2f2;      }    </style></defs><g id="Calque_1" data-name="Calque 1"><path class="cls-1" d="M8.83,2455.63h477.03c4.88,0,8.83-3.95,8.83-8.83v-957.38c0-4.88,3.95-8.83,8.83-8.83h685.36c4.88,0,8.83,3.95,8.83,8.83v957.38c0,4.88,3.95,8.83,8.83,8.83h473.75c4.88,0,8.83-3.95,8.83-8.83V25.42c0-4.88-3.95-8.83-8.83-8.83h-478.05c-4.88,0-8.83,3.95-8.83,8.83v952.6c0,4.88-3.95,8.83-8.83,8.83H502.08c-4.88,0-8.83-3.95-8.83-8.83V25.42c0-4.88-3.95-8.83-8.83-8.83H8.83c-4.88,0-8.83,3.95-8.83,8.83v2421.38c0,4.88,3.95,8.83,8.83,8.83Z"></path><path class="cls-1" d="M4662.31,18.74h474.63c5.22,0,9.45,4.23,9.45,9.45v1922.28c0,5.22,4.23,9.45,9.45,9.45h897.72c5.22,0,9.45,4.23,9.45,9.45v474.66c0,5.22-4.23,9.45-9.45,9.45h-1391.24c-5.23,0-9.47-4.26-9.45-9.49V28.15c.02-5.2,4.25-9.4,9.45-9.4Z"></path><path class="cls-1" d="M3755.95,638.61c-3.85,8.14-14.47,10.15-21.02,3.97-14.72-13.89-35.78-30.66-63.18-50.28-36.82-26.29-81.56-53.22-134.22-80.69-52.71-27.47-109.89-50.32-171.5-68.67-61.66-18.3-124.29-27.47-187.9-27.47-111.38,0-195.36,23.39-252.03,70.07-56.67,46.68-85,114.43-85,203.23,0,66.1,17.9,118.46,53.69,157.2,35.79,38.74,89.48,71.73,161.06,99.1,71.58,27.36,161.06,56.92,268.43,88.79,139.16,38.74,259.95,86,362.38,141.8,102.39,55.8,180.91,128.71,235.63,218.68,54.66,89.97,82.02,210.09,82.02,360.42,0,127.58-20.88,236.92-62.63,328.02-41.76,91.1-98.94,165.73-171.5,223.78-72.61,58.05-156.12,100.22-250.54,126.4-94.46,26.13-194.38,39.27-299.75,39.27s-210.79-12.61-316.15-37.77c-105.42-25.16-206.31-61.22-302.73-108.16-93.35-45.38-180.59-99.9-261.81-163.56-4.78-3.75-6.38-10.3-3.91-15.85l169.69-381.1c3.75-8.42,14.71-10.56,21.29-4.11,18.74,18.35,46.13,40.61,82.19,66.74,45.72,33.21,101.41,66.42,167.02,99.58,65.62,33.21,137.2,61.27,214.75,84.12,77.55,22.91,156.07,34.33,235.63,34.33,113.34,0,197.83-20.92,253.52-62.82,55.64-41.85,83.51-103.55,83.51-185.04,0-72.91-22.37-130.48-67.11-172.65-44.74-42.17-107.89-78.65-189.4-109.45-81.56-30.74-177.98-63.2-289.31-97.43-135.24-43.29-247.09-92.28-335.54-147.01-88.5-54.72-155.09-122.54-199.83-203.44-44.74-80.91-67.11-182.95-67.11-306.08,0-166.43,34.77-306.02,104.39-418.85,69.58-112.82,163.02-198.29,280.36-256.45C2916.64,29.08,3046.9,0,3190.06,0c99.4,0,193.36,12.61,281.85,37.77,88.45,25.22,171.5,58.37,249.05,99.58,74.03,39.33,140.79,81.8,200.34,127.39,4.95,3.79,6.54,10.55,3.87,16.18l-169.22,357.7Z"></path><g><path class="cls-1" d="M256.03,2990.31h-95.92v249.97h-58.14v-249.97H5.21v-51.35h250.82v51.35Z"></path><path class="cls-1" d="M757.67,3188.93v51.35h-209.23v-301.33h205.41v51.35h-146.84v72.57h126.47v47.53h-126.47v78.51h150.66Z"></path><path class="cls-1" d="M1034.38,3087.07c0-18.67,3.32-36.85,9.97-54.54,6.65-17.68,16.41-33.74,29.28-48.17,12.87-14.43,28.5-25.95,46.9-34.59,18.39-8.63,39.18-12.94,62.39-12.94,27.73,0,51.7,6.09,71.94,18.25,20.23,12.17,35.15,28.01,44.77,47.53l-44.56,30.98c-5.09-11.31-11.74-20.23-19.95-26.74-8.21-6.51-17.05-11.17-26.53-14.01-9.48-2.83-18.61-4.24-27.37-4.24-14.72,0-27.52,2.97-38.41,8.91-10.9,5.94-19.95,13.73-27.16,23.34-7.22,9.62-12.67,20.37-16.34,32.26-3.68,11.88-5.52,23.91-5.52,36.07,0,13.02,2.12,25.68,6.37,37.98,4.24,12.31,10.25,23.2,18.04,32.68,7.78,9.48,17.11,16.98,28.01,22.49,10.89,5.52,22.84,8.28,35.86,8.28,9.05,0,18.39-1.55,28.01-4.67,9.62-3.11,18.53-8.06,26.74-14.85,8.2-6.79,14.85-15.7,19.95-26.74l47.53,28.01c-6.23,15-16.06,27.73-29.5,38.2-13.44,10.47-28.44,18.39-44.99,23.77-16.55,5.38-33.04,8.06-49.44,8.06-21.5,0-41.1-4.46-58.78-13.37-17.69-8.91-33.04-20.8-46.05-35.65-13.02-14.85-23.13-31.55-30.34-50.08-7.22-18.53-10.82-37.27-10.82-56.23Z"></path><path class="cls-1" d="M1851.78,2938.95v301.33h-58.14v-128.59h-136.66v128.59h-58.57v-301.33h58.57v121.8h136.66v-121.8h58.14Z"></path><path class="cls-1" d="M2227.8,3046.75v193.53h-58.57v-301.33h47.11l155.33,198.62v-198.2h58.14v300.9h-48.38l-153.63-193.53Z"></path><path class="cls-1" d="M2876.28,3242.4c-22.07,0-42.02-4.24-59.84-12.73-17.83-8.49-33.25-20.01-46.26-34.59-13.02-14.57-23.06-30.98-30.13-49.23-7.08-18.25-10.61-36.99-10.61-56.23s3.75-39.26,11.25-57.51c7.49-18.25,17.83-34.52,30.98-48.81,13.16-14.28,28.79-25.6,46.9-33.95,18.1-8.34,37.77-12.52,58.99-12.52s41.66,4.39,59.63,13.16c17.96,8.77,33.32,20.52,46.05,35.23,12.73,14.71,22.56,31.13,29.5,49.23,6.93,18.11,10.4,36.78,10.4,56.02s-3.61,38.83-10.82,57.08c-7.22,18.25-17.4,34.52-30.56,48.81-13.16,14.29-28.72,25.54-46.68,33.74-17.97,8.21-37.56,12.31-58.78,12.31ZM2788.85,3089.62c0,13.02,1.98,25.61,5.94,37.77,3.96,12.17,9.69,22.99,17.19,32.47,7.49,9.48,16.69,16.98,27.59,22.49,10.89,5.52,23.27,8.28,37.13,8.28s27.02-2.9,37.77-8.7c10.75-5.8,19.87-13.51,27.37-23.13,7.49-9.62,13.08-20.51,16.76-32.68,3.67-12.16,5.52-24.33,5.52-36.5,0-13.01-1.98-25.53-5.94-37.56-3.97-12.02-9.76-22.77-17.4-32.25-7.64-9.48-16.84-16.98-27.59-22.49-10.76-5.52-23.06-8.28-36.92-8.28s-26.25,2.9-37.14,8.7c-10.9,5.8-20.09,13.44-27.59,22.92-7.5,9.48-13.16,20.23-16.98,32.26-3.82,12.03-5.73,24.26-5.73,36.71Z"></path><path class="cls-1" d="M3323.17,3240.28v-301.33h58.57v249.97h153.63v51.35h-212.2Z"></path><path class="cls-1" d="M3947.47,3242.4c-22.07,0-42.02-4.24-59.84-12.73-17.83-8.49-33.25-20.01-46.26-34.59-13.02-14.57-23.06-30.98-30.13-49.23-7.08-18.25-10.61-36.99-10.61-56.23s3.75-39.26,11.25-57.51c7.49-18.25,17.83-34.52,30.98-48.81,13.16-14.28,28.79-25.6,46.9-33.95,18.1-8.34,37.77-12.52,58.99-12.52s41.66,4.39,59.63,13.16c17.96,8.77,33.32,20.52,46.05,35.23,12.73,14.71,22.56,31.13,29.5,49.23,6.93,18.11,10.4,36.78,10.4,56.02s-3.61,38.83-10.82,57.08c-7.22,18.25-17.4,34.52-30.56,48.81-13.16,14.29-28.72,25.54-46.68,33.74-17.97,8.21-37.56,12.31-58.78,12.31ZM3860.04,3089.62c0,13.02,1.98,25.61,5.94,37.77,3.96,12.17,9.69,22.99,17.19,32.47,7.49,9.48,16.69,16.98,27.59,22.49,10.89,5.52,23.27,8.28,37.13,8.28s27.02-2.9,37.77-8.7c10.75-5.8,19.87-13.51,27.37-23.13,7.49-9.62,13.08-20.51,16.76-32.68,3.67-12.16,5.52-24.33,5.52-36.5,0-13.01-1.98-25.53-5.94-37.56-3.97-12.02-9.76-22.77-17.4-32.25-7.64-9.48-16.84-16.98-27.59-22.49-10.76-5.52-23.06-8.28-36.92-8.28s-26.25,2.9-37.14,8.7c-10.9,5.8-20.09,13.44-27.59,22.92-7.5,9.48-13.16,20.23-16.98,32.26-3.82,12.03-5.73,24.26-5.73,36.71Z"></path><path class="cls-1" d="M4519.56,3242.4c-19.81,0-38.34-3.89-55.6-11.67-17.26-7.78-32.47-18.74-45.62-32.89-13.16-14.15-23.41-30.48-30.77-49.02-7.36-18.53-11.03-38.83-11.03-60.9,0-20.65,3.75-40.11,11.25-58.36,7.49-18.25,17.83-34.38,30.98-48.38,13.16-14,28.65-24.89,46.47-32.68,17.83-7.78,37.06-11.67,57.72-11.67,28.57,0,52.98,5.94,73.21,17.82,20.23,11.88,35.44,27.87,45.62,47.96l-43.71,32.26c-7.36-14.99-17.97-26.45-31.83-34.38-13.87-7.92-28.86-11.88-44.99-11.88-12.73,0-24.4,2.69-35.01,8.06-10.61,5.38-19.73,12.73-27.37,22.07-7.64,9.34-13.44,20.09-17.4,32.26-3.97,12.17-5.94,25.04-5.94,38.62,0,14.43,2.19,27.73,6.58,39.89,4.38,12.17,10.61,22.85,18.67,32.04,8.06,9.2,17.47,16.34,28.22,21.43,10.75,5.09,22.63,7.64,35.65,7.64,15.56,0,30.27-3.96,44.14-11.88,13.86-7.92,26.88-19.52,39.04-34.8v58.14c-25.18,26.88-54.61,40.32-88.27,40.32ZM4603.6,3128.24h-60.69v-42.87h109.07v154.91h-48.38v-112.04Z"></path><path class="cls-1" d="M4956.69,3240.28v-301.33h58.57v301.33h-58.57Z"></path><path class="cls-1" d="M5541.94,3188.93v51.35h-209.23v-301.33h205.41v51.35h-146.84v72.57h126.47v47.53h-126.47v78.51h150.66Z"></path><path class="cls-1" d="M6021.94,3017.89c-1.98-1.98-5.59-4.6-10.82-7.85-5.24-3.25-11.61-6.58-19.1-9.97-7.5-3.4-15.64-6.22-24.4-8.49-8.77-2.26-17.68-3.4-26.74-3.4-15.85,0-27.8,2.89-35.86,8.66-8.06,5.77-12.1,14.14-12.1,25.12,0,8.17,2.55,14.64,7.64,19.43,5.09,4.79,12.73,8.87,22.92,12.25,10.19,3.38,22.92,7.04,38.2,10.98,19.8,4.79,36.99,10.63,51.56,17.53,14.57,6.9,25.74,15.91,33.53,27.03,7.78,11.12,11.67,25.97,11.67,44.55,0,15.77-2.97,29.28-8.91,40.54-5.94,11.26-14.08,20.48-24.4,27.66-10.33,7.17-22.22,12.39-35.65,15.62-13.44,3.23-27.66,4.85-42.65,4.85s-29.99-1.56-44.99-4.67c-15-3.11-29.36-7.57-43.08-13.37-13.73-5.8-26.52-12.8-38.41-21.01l25.89-50.5c2.55,2.55,7.07,5.88,13.58,9.97,6.51,4.1,14.43,8.21,23.77,12.31,9.34,4.11,19.52,7.57,30.56,10.4,11.04,2.83,22.21,4.24,33.53,4.24,16.13,0,28.15-2.59,36.07-7.76,7.92-5.17,11.88-12.8,11.88-22.87,0-9.01-3.18-16.13-9.55-21.34-6.37-5.21-15.35-9.72-26.95-13.53-11.6-3.8-25.32-7.81-41.17-12.04-19.25-5.35-35.16-11.41-47.74-18.17-12.59-6.76-22.07-15.15-28.44-25.15-6.37-10-9.55-22.61-9.55-37.83,0-20.57,4.95-37.82,14.85-51.77,9.9-13.95,23.2-24.51,39.89-31.7,16.69-7.19,35.23-10.78,55.6-10.78,14.14,0,27.51,1.56,40.11,4.67,12.59,3.12,24.4,7.22,35.44,12.31,11.03,5.09,20.93,10.61,29.71,16.55l-25.89,47.53Z"></path></g></g><g id="Calque_2" data-name="Calque 2"><g><path class="cls-1" d="M9261.95,2772.27c-500.54,465.1-1314.1,429.67-1770.34-78.26-301.21-336.65-388.32-794.36-267.25-1201.88,252.48-767.79,962.69-668.86,1226.98-375.03,4.43,5.91,8.86,10.34,14.77,16.24-33.96-138.79-100.4-271.68-202.28-385.37-326.31-360.27-1198.93-482.82-1509,462.15-147.65,500.54-42.82,1064.57,327.79,1477.99,561.07,624.57,1553.29,668.86,2167.52,97.45"></path><path class="cls-1" d="M7625.98,2757.5c479.87,459.2,1241.75,442.95,1700.94-38.39,2.95-2.95,5.91-5.91,8.86-8.86-369.13,385.37-980.4,398.66-1365.77,29.53-255.44-243.62-346.98-593.56-273.15-913.96,132.89-512.35,556.65-564.03,819.46-438.52,48.72,23.62,91.54,51.68,125.5,85.64,1.48,1.48,4.43,4.43,5.91,5.91-32.48-104.83-88.59-202.28-169.8-284.97-4.43-4.43-10.34-10.34-14.77-14.77-277.58-265.77-980.4-314.5-1175.3,440-91.54,398.66,23.62,834.23,341.07,1138.39h-2.95Z"></path><path class="cls-1" d="M8014.3,2748.64c372.08,355.84,962.69,342.55,1318.53-29.53v-1.48c4.43-4.43,8.86-10.34,13.29-14.77,5.91-7.38,13.29-14.77,19.19-22.15-155.03,138.79-394.23,137.32-546.31-10.34-119.6-115.17-153.56-286.44-98.93-432.62,8.86-25.1,20.67-48.72,35.44-72.35,29.53-47.25,53.15-98.93,63.49-153.56,31.01-169.8-20.67-352.89-152.08-482.82-1.48-1.48-2.95-2.95-5.91-5.91-33.96-32.48-75.3-60.54-121.07-82.68-253.96-121.07-661.48-70.87-789.93,423.76-70.87,310.07,17.72,646.71,264.3,882.95h0v1.48Z"></path></g><g><path class="cls-1" d="M8522.22,510.25c500.54-465.1,1315.57-429.67,1771.82,78.26,301.21,336.64,388.32,794.36,267.25,1201.88-252.48,767.79-962.69,668.86-1226.98,375.03-4.43-5.91-8.86-10.34-14.77-16.24,33.96,138.79,100.4,271.68,202.28,385.37,324.83,361.75,1197.45,484.3,1507.52-460.67,149.13-500.54,42.82-1064.57-327.79-1477.99-561.07-624.57-1553.29-668.86-2167.52-97.45"></path><path class="cls-1" d="M10159.67,525.01c-479.87-459.2-1241.75-442.95-1700.94,38.39-2.95,2.95-5.91,5.91-8.86,8.86,369.13-385.37,980.4-398.66,1365.77-29.53,255.44,243.62,346.98,593.56,274.63,913.96-132.89,512.35-556.65,564.03-819.46,438.52-48.72-23.62-91.54-51.68-125.5-85.64-1.48-1.48-4.43-4.43-5.91-5.91,32.48,104.83,88.59,202.28,169.8,284.97,4.43,4.43,10.34,10.34,14.77,14.77,277.58,265.77,980.4,314.5,1175.3-440,91.54-398.66-23.62-834.23-341.07-1138.39h1.48Z"></path><path class="cls-1" d="M9769.87,533.87c-372.08-355.84-962.69-342.55-1318.53,29.53h0c-4.43,4.43-8.86,10.34-13.29,14.77-5.91,7.38-13.29,14.77-19.19,22.15,155.03-138.79,394.23-137.32,546.31,10.34,119.6,115.17,153.56,286.44,98.93,432.62-8.86,25.1-20.67,48.72-35.44,72.35-29.53,47.25-53.15,98.93-63.49,153.56-31.01,169.8,20.67,352.89,152.08,482.82,1.48,1.48,2.95,2.95,5.91,5.91,33.96,32.48,75.3,60.54,121.07,82.68,253.96,121.07,661.48,70.87,789.93-423.76,70.87-310.07-17.72-646.71-264.3-882.95h0Z"></path></g></g></svg>